HIERARCHY
ROOT hip
{
  OFFSET 1.09931 80.1916 255.893
  CHANNELS 6 Xposition Yposition Zposition Zrotation Xrotation Yrotation
  JOINT abdomen
  {
    OFFSET 0 20.6881 -0.73152
    CHANNELS 3 Zrotation Xrotation Yrotation
    JOINT chest
    {
      OFFSET 0 11.7043 -0.48768
      CHANNELS 3 Zrotation Xrotation Yrotation
      JOINT neck
      {
        OFFSET 0 22.1894 -2.19456
        CHANNELS 3 Zrotation Xrotation Yrotation
        JOINT head
        {
          OFFSET -0.24384 7.07133 1.2192
          CHANNELS 3 Zrotation Xrotation Yrotation
          JOINT leftEye
          {
            OFFSET 4.14528 8.04674 8.04672
            CHANNELS 3 Zrotation Xrotation Yrotation
            End Site
            {
              OFFSET 1 0 0
            }
          }
          JOINT rightEye
          {
            OFFSET -3.6576 8.04674 8.04672
            CHANNELS 3 Zrotation Xrotation Yrotation
            End Site
            {
              OFFSET 1 0 0
            }
          }
        }
      }
      JOINT rCollar
      {
        OFFSET -2.68224 19.2634 -4.8768
        CHANNELS 3 Zrotation Xrotation Yrotation
        JOINT rShldr
        {
          OFFSET -8.77824 -1.95073 1.46304
          CHANNELS 3 Zrotation Xrotation Yrotation
          JOINT rForeArm
          {
            OFFSET -28.1742 -1.7115 0.48768
            CHANNELS 3 Zrotation Xrotation Yrotation
            JOINT rHand
            {
              OFFSET -22.5879 0.773209 7.07136
              CHANNELS 3 Zrotation Xrotation Yrotation
              JOINT rThumb1
              {
                OFFSET -1.2192 -0.487915 3.41376
                CHANNELS 3 Zrotation Xrotation Yrotation
                JOINT rThumb2
                {
                  OFFSET -3.37035 -0.52449 3.41376
                  CHANNELS 3 Zrotation Xrotation Yrotation
                  End Site
                  {
                    OFFSET -1.78271 -1.18214 1.43049
                  }
                }
              }
              JOINT rIndex1
              {
                OFFSET -7.75947 0.938293 5.60832
                CHANNELS 3 Zrotation Xrotation Yrotation
                JOINT rIndex2
                {
                  OFFSET -2.54057 -0.884171 1.56538
                  CHANNELS 3 Zrotation Xrotation Yrotation
                  End Site
                  {
                    OFFSET -1.62519 -0.234802 1.16502
                  }
                }
              }
              JOINT rMid1
              {
                OFFSET -8.24714 1.18213 3.41376
                CHANNELS 3 Zrotation Xrotation Yrotation
                JOINT rMid2
                {
                  OFFSET -3.10165 -0.590103 1.0647
                  CHANNELS 3 Zrotation Xrotation Yrotation
                  End Site
                  {
                    OFFSET -2.48547 -0.328903 0.83742
                  }
                }
              }
              JOINT rRing1
              {
                OFFSET -8.82822 0.546677 1.51678
                CHANNELS 3 Zrotation Xrotation Yrotation
                JOINT rRing2
                {
                  OFFSET -2.60934 -0.819778 -0.0198488
                  CHANNELS 3 Zrotation Xrotation Yrotation
                  End Site
                  {
                    OFFSET -2.33842 -0.294052 0.168128
                  }
                }
              }
              JOINT rPinky1
              {
                OFFSET -8.27202 -0.0477905 -0.4584
                CHANNELS 3 Zrotation Xrotation Yrotation
                JOINT rPinky2
                {
                  OFFSET -1.82734 -0.647385 -0.700984
                  CHANNELS 3 Zrotation Xrotation Yrotation
                  End Site
                  {
                    OFFSET -1.69225 -0.51767 -0.607171
                  }
                }
              }
            }
          }
        }
      }
      JOINT lCollar
      {
        OFFSET 2.68224 19.2634 -4.8768
        CHANNELS 3 Zrotation Xrotation Yrotation
        JOINT lShldr
        {
          OFFSET 8.77824 -1.95073 1.46304
          CHANNELS 3 Zrotation Xrotation Yrotation
          JOINT lForeArm
          {
            OFFSET 28.1742 -1.7115 0.48768
            CHANNELS 3 Zrotation Xrotation Yrotation
            JOINT lHand
            {
              OFFSET 22.5879 0.773209 7.07136
              CHANNELS 3 Zrotation Xrotation Yrotation
              JOINT lThumb1
              {
                OFFSET 1.2192 -0.487915 3.41376
                CHANNELS 3 Zrotation Xrotation Yrotation
                JOINT lThumb2
                {
                  OFFSET 3.37035 -0.52449 3.41376
                  CHANNELS 3 Zrotation Xrotation Yrotation
                  End Site
                  {
                    OFFSET 1.78271 -1.18214 1.43049
                  }
                }
              }
              JOINT lIndex1
              {
                OFFSET 7.75947 0.938293 5.60832
                CHANNELS 3 Zrotation Xrotation Yrotation
                JOINT lIndex2
                {
                  OFFSET 2.54057 -0.884171 1.56538
                  CHANNELS 3 Zrotation Xrotation Yrotation
                  End Site
                  {
                    OFFSET 1.62519 -0.234802 1.16502
                  }
                }
              }
              JOINT lMid1
              {
                OFFSET 8.24714 1.18213 3.41376
                CHANNELS 3 Zrotation Xrotation Yrotation
                JOINT lMid2
                {
                  OFFSET 3.10165 -0.590103 1.0647
                  CHANNELS 3 Zrotation Xrotation Yrotation
                  End Site
                  {
                    OFFSET 2.48547 -0.328903 0.83742
                  }
                }
              }
              JOINT lRing1
              {
                OFFSET 8.82822 0.546677 1.51678
                CHANNELS 3 Zrotation Xrotation Yrotation
                JOINT lRing2
                {
                  OFFSET 2.60934 -0.819778 -0.0198488
                  CHANNELS 3 Zrotation Xrotation Yrotation
                  End Site
                  {
                    OFFSET 2.33842 -0.294052 0.168128
                  }
                }
              }
              JOINT lPinky1
              {
                OFFSET 8.27202 -0.0477905 -0.4584
                CHANNELS 3 Zrotation Xrotation Yrotation
                JOINT lPinky2
                {
                  OFFSET 1.82734 -0.647385 -0.700984
                  CHANNELS 3 Zrotation Xrotation Yrotation
                  End Site
                  {
                    OFFSET 1.69225 -0.51767 -0.607171
                  }
                }
              }
            }
          }
        }
      }
    }
  }
  JOINT rButtock
  {
    OFFSET -8.77824 4.35084 1.2192
    CHANNELS 3 Zrotation Xrotation Yrotation
    JOINT rThigh
    {
      OFFSET 0 -1.70687 -2.19456
      CHANNELS 3 Zrotation Xrotation Yrotation
      JOINT rShin
      {
        OFFSET 0 -36.8199 0.73152
        CHANNELS 3 Zrotation Xrotation Yrotation
        JOINT rFoot
        {
          OFFSET 0.73152 -45.1104 -5.12064
          CHANNELS 3 Zrotation Xrotation Yrotation
          End Site
          {
            OFFSET -1.1221 -3.69964 12.103
          }
        }
      }
    }
  }
  JOINT lButtock
  {
    OFFSET 8.77824 4.35084 1.2192
    CHANNELS 3 Zrotation Xrotation Yrotation
    JOINT lThigh
    {
      OFFSET 0 -1.70687 -2.19456
      CHANNELS 3 Zrotation Xrotation Yrotation
      JOINT lShin
      {
        OFFSET 0 -36.8199 0.73152
        CHANNELS 3 Zrotation Xrotation Yrotation
        JOINT lFoot
        {
          OFFSET -0.73152 -45.1104 -5.12064
          CHANNELS 3 Zrotation Xrotation Yrotation
          End Site
          {
            OFFSET 1.1221 -3.69964 12.103
          }
        }
      }
    }
  }
}
MOTION
Frames:	5
Frame Time:	0.00833333
-8.1005 84.6734 -263.202 0.405493 -0.000977309 -0.00692149 -0.533512 -0.00266527 -0.015248 -0.147217 -0.00411041 -0.025507 -1.96882e-015 -7.95139e-016 -2.48481e-017 -6.19028e-015 3.18055e-015 -1.19581e-016 -0 0 0 -0 0 0 -1.04494e-015 7.37677e-018 9.93923e-017 -1.95184e-014 1.61513e-016 5.96354e-016 -3.85096e-013 1.1947e-013 9.54166e-015 -4.40396e-012 -9.36773e-014 -8.90555e-014 -1.03909e-011 5.48133e-014 -1.78111e-013 -1.79403e-011 8.5875e-014 -3.24417e-013 -1.03833e-011 5.64548e-014 -1.90833e-013 7.73091 5.47488 0.417314 -1.03889e-011 5.50634e-014 -1.81292e-013 2.90554 0.965183 0.102902 -1.03757e-011 5.52621e-014 -1.88448e-013 10.2786 0.731801 0.0259123 -1.03923e-011 5.48646e-014 -1.94014e-013 2.22167 -0.733487 -0.20892 -1.04236e-015 5.82377e-018 -9.93923e-017 -2.50194e-014 3.54085e-016 -1.39149e-015 -3.85543e-013 -1.08934e-013 -9.54166e-015 -4.41416e-012 1.46827e-013 -8.5875e-014 -1.04075e-011 7.66483e-014 -2.06736e-013 -1.79717e-011 1.36764e-013 -3.26802e-013 -1.04163e-011 8.11041e-014 -1.90833e-013 -7.73091 5.47488 -0.417314 -1.04088e-011 7.66315e-014 -2.00375e-013 -2.90554 0.965183 -0.102902 -1.04197e-011 7.74266e-014 -1.91628e-013 -10.2786 0.731801 -0.0259123 -1.04064e-011 7.71284e-014 -1.94014e-013 -2.22167 -0.733487 0.20892 -2.03217e-016 0 -3.88251e-019 0.094524 -2.38716 -0.0232783 -0.00799119 -1.22788 -0.0686771 -0.498325 3.61504 0.130477 2.03217e-016 0 3.88251e-019 -0.906504 -4.44109 0.075277 0.00224348 2.49245 0.0119077 0.505301 1.94872 -0.0973757 
-8.14845 81.0417 -267.975 0.102855 4.50257 1.14811 1.01077 -5.46728 0.229805 0.164898 1.05352 -0.00894132 0.822065 4.64672 -0.284426 -2.74902 -6.56279 -1.13059 -0 0 0 -0 0 0 -9.976e-015 1.17089e-013 1.59191e-014 22.4881 1.42792 -0.2385 -3.45657 -1.44284 5.53133 4.5092e-005 0.445913 0.0626641 -9.52415e-011 1.05584e-009 -1.3561e-009 -1.68179e-010 1.82798e-009 -2.34388e-009 -9.52356e-011 1.05584e-009 -1.35611e-009 7.73091 5.47488 0.417314 -9.52406e-011 1.05584e-009 -1.3561e-009 2.90554 0.965183 0.102902 -9.52297e-011 1.05584e-009 -1.3561e-009 10.2786 0.731801 0.0259123 -9.52424e-011 1.05584e-009 -1.3561e-009 2.22167 -0.733487 -0.20892 -9.97767e-015 1.17088e-013 1.57362e-014 -22.1023 6.56153 1.2821 3.31631 -1.36147 -5.32844 -0.012371 2.68536 -0.376455 -8.55068e-010 1.99515e-010 1.20568e-009 -1.46682e-009 3.52275e-010 2.09205e-009 -8.55076e-010 1.99519e-010 1.2057e-009 -7.73091 5.47488 -0.417314 -8.55068e-010 1.99514e-010 1.20568e-009 -2.90554 0.965183 -0.102902 -8.55078e-010 1.99514e-010 1.20569e-009 -10.2786 0.731801 -0.0259123 -8.55064e-010 1.99515e-010 1.20569e-009 -2.22167 -0.733487 0.20892 -2.03217e-016 0 -3.88251e-019 1.29259 -11.6956 -0.828993 -0.00642603 9.48646 0.0623413 -0.442475 -2.36154 0.43648 2.03217e-016 0 3.88251e-019 -0.579604 -15.846 1.39515 0.0239487 21.1953 -0.239574 0.551182 2.03865 0.361143 
-7.99865 81.3141 -266.316 -0.417649 9.24319 2.41299 2.70557 -11.2358 0.474971 0.497543 2.18771 0.00241434 1.73822 9.564 -0.590888 -5.953 -13.5094 -2.37831 -0 0 0 -0 0 0 -2.01255e-014 2.45401e-013 3.22217e-014 46.2874 2.83816 -0.542317 -6.7781 -2.90274 11.3422 -0.00123406 0.96576 0.135733 -1.73051e-010 2.19764e-009 -2.88145e-009 -3.0658e-010 3.80475e-009 -4.98042e-009 -1.73046e-010 2.19764e-009 -2.88146e-009 7.73091 5.47488 0.417314 -1.73051e-010 2.19764e-009 -2.88145e-009 2.90554 0.965183 0.102902 -1.73042e-010 2.19764e-009 -2.88146e-009 10.2786 0.731801 0.0259123 -1.73051e-010 2.19764e-009 -2.88145e-009 2.22167 -0.733487 -0.20892 -2.01297e-014 2.45401e-013 3.20571e-014 -45.7857 13.5515 2.64873 6.5793 -2.77946 -11.0231 0.0142618 5.40066 -0.760255 -1.7954e-009 4.24975e-010 2.55152e-009 -3.07971e-009 7.50241e-010 4.42731e-009 -1.79541e-009 4.24978e-010 2.55154e-009 -7.73091 5.47488 -0.417314 -1.7954e-009 4.24971e-010 2.55152e-009 -2.90554 0.965183 -0.102902 -1.79541e-009 4.24971e-010 2.55153e-009 -10.2786 0.731801 -0.0259123 -1.79539e-009 4.24973e-010 2.55152e-009 -2.22167 -0.733487 0.20892 -2.03217e-016 0 -3.88251e-019 2.2546 -21.5675 -1.75176 -0.061803 20.8249 0.211358 -0.317951 -8.64198 0.748498 2.03217e-016 0 3.88251e-019 0.411218 -27.8009 3.01858 0.279581 41.0371 -0.626789 0.593938 2.17315 0.804989 
-7.8339 81.5745 -264.577 -1.0599 13.4874 3.54544 4.24455 -16.3953 0.747157 0.787293 3.16879 0.0242317 2.60817 13.9388 -0.876277 -9.06445 -19.6567 -3.57832 -0 0 0 -0 0 0 -2.78381e-014 3.51252e-013 4.75585e-014 67.5 4.28347 -0.71728 -9.54507 -4.16742 16.634 -0.00279156 1.33773 0.188038 -2.64943e-010 3.16741e-009 -4.06793e-009 -4.68656e-010 5.48378e-009 -7.031e-009 -2.6494e-010 3.16741e-009 -4.06793e-009 7.73091 5.47488 0.417314 -2.64944e-010 3.16741e-009 -4.06793e-009 2.90554 0.965183 0.102902 -2.64938e-010 3.16741e-009 -4.06793e-009 10.2786 0.731801 0.0259123 -2.64943e-010 3.16741e-009 -4.06792e-009 2.22167 -0.733487 -0.20892 -2.78483e-014 3.51252e-013 4.74074e-014 -67.2335 19.6439 4.05761 9.19867 -3.94335 -16.0197 0.0696405 8.05468 -1.13937 -2.54439e-009 5.98393e-010 3.61745e-009 -4.36452e-009 1.05655e-009 6.2768e-009 -2.5444e-009 5.98396e-010 3.61747e-009 -7.73091 5.47488 -0.417314 -2.54439e-009 5.98388e-010 3.61744e-009 -2.90554 0.965183 -0.102902 -2.54439e-009 5.98388e-010 3.61745e-009 -10.2786 0.731801 -0.0259123 -2.54438e-009 5.9839e-010 3.61745e-009 -2.22167 -0.733487 0.20892 -2.03217e-016 0 -3.88251e-019 2.79482 -30.2871 -2.76669 -0.168116 30.9146 0.375075 -0.133804 -14.3125 1.08146 2.03217e-016 0 3.88251e-019 2.03947 -38.5644 4.95985 0.943144 58.5947 -1.33171 0.638626 2.21807 1.27834 
-7.73658 81.7123 -263.087 -1.59582 16.5135 4.26164 5.31089 -20.0327 1.06672 0.970126 3.76714 0.0722069 3.26121 16.9585 -1.08708 -11.347 -23.8361 -4.4788 -0 0 0 -0 0 0 -2.94587e-014 4.00949e-013 6.04802e-014 82.2084 5.81699 -0.567822 -11.4724 -5.08542 20.5932 -0.00220281 1.34003 0.188363 -3.92043e-010 3.70713e-009 -4.4072e-009 -6.89917e-010 6.41847e-009 -7.61669e-009 -3.92041e-010 3.70713e-009 -4.4072e-009 7.73091 5.47488 0.417314 -3.92045e-010 3.70713e-009 -4.40719e-009 2.90554 0.965183 0.102902 -3.9204e-010 3.70713e-009 -4.4072e-009 10.2786 0.731801 0.0259123 -3.92043e-010 3.70713e-009 -4.40718e-009 2.22167 -0.733487 -0.20892 -2.94829e-014 4.00948e-013 6.03311e-014 -82.4569 23.5254 5.37764 10.7606 -4.61665 -19.2359 0.138655 10.5563 -1.50079 -2.81503e-009 6.41709e-010 3.98362e-009 -4.82916e-009 1.13373e-009 6.91187e-009 -2.81504e-009 6.41711e-010 3.98363e-009 -7.73091 5.47488 -0.417314 -2.81503e-009 6.41703e-010 3.9836e-009 -2.90554 0.965183 -0.102902 -2.81503e-009 6.41703e-010 3.98361e-009 -10.2786 0.731801 -0.0259123 -2.81502e-009 6.41705e-010 3.9836e-009 -2.22167 -0.733487 0.20892 -2.03217e-016 0 -3.88251e-019 2.92121 -36.1474 -3.72191 -0.283794 37.8829 0.527671 0.0820944 -18.4594 1.4399 2.03217e-016 0 3.88251e-019 3.8682 -46.4247 6.94224 2.14204 70.4458 -2.52329 0.694805 2.0393 1.8252 
